<?xml version="1.0" standalone="no"?>
<!DOCTYPE svg PUBLIC "-//W3C//DTD SVG 20010904//EN"
 "http://www.w3.org/TR/2001/REC-SVG-20010904/DTD/svg10.dtd">
<svg version="1.0" xmlns="http://www.w3.org/2000/svg"
 width="707.000000pt" height="497.000000pt" viewBox="0 0 707.000000 497.000000"
 preserveAspectRatio="xMidYMid meet">

<g transform="translate(0.000000,497.000000) scale(0.100000,-0.100000)"
fill="#000000" stroke="none">
<path d="M2159 4636 c-149 -31 -284 -103 -396 -209 -173 -164 -256 -360 -255
-602 0 -359 238 -672 591 -777 95 -28 283 -35 383 -15 230 48 409 172 533 372
172 275 162 629 -26 902 -92 133 -255 251 -419 304 -80 26 -114 32 -220 35
-82 2 -148 -1 -191 -10z m80 -348 c54 -74 140 -143 204 -164 65 -22 110 -63
137 -126 28 -66 18 -106 -46 -177 -43 -48 -46 -55 -40 -90 l6 -39 -68 -41
c-38 -22 -73 -41 -79 -41 -5 0 -40 23 -77 50 -60 46 -66 54 -66 86 0 28 -9 47
-40 81 -23 26 -47 68 -57 99 -12 38 -22 54 -34 54 -21 0 -29 20 -29 75 0 53 8
75 26 75 9 0 14 12 14 36 0 58 22 115 57 151 19 18 37 33 41 32 4 0 27 -27 51
-61z m-31 -624 c4 -27 -26 -40 -46 -20 -21 20 -8 48 20 44 14 -2 24 -11 26
-24z m346 10 c7 -19 -10 -44 -31 -44 -17 0 -27 24 -19 45 7 20 42 19 50 -1z
m-297 -60 c7 -20 -22 -45 -43 -37 -14 5 -19 35 -7 46 12 13 44 7 50 -9z m250
0 c3 -8 -2 -23 -11 -32 -15 -15 -17 -15 -32 0 -21 21 -11 48 16 48 11 0 23 -7
27 -16z m-199 -52 c4 -28 -24 -40 -45 -19 -14 13 -14 19 -3 32 18 22 44 15 48
-13z m137 -2 c0 -18 -6 -26 -21 -28 -26 -4 -40 24 -23 45 18 21 44 11 44 -17z
m-77 11 c20 -12 10 -46 -14 -49 -25 -4 -40 24 -23 44 13 16 19 17 37 5z"/>
<path d="M1121 3838 c-83 -43 -81 -30 -81 -539 l0 -446 -55 -12 c-86 -19 -173
-68 -241 -136 -73 -73 -117 -157 -141 -268 -55 -255 117 -525 377 -590 l55
-14 3 -597 2 -596 460 0 460 0 0 490 0 490 -61 0 -60 0 3 43 3 42 58 3 57 3 0
54 0 55 -195 0 -195 0 0 45 0 45 370 0 c363 0 370 0 370 -20 0 -18 7 -20 75
-20 l75 0 0 533 0 532 -115 -3 c-368 -11 -694 193 -850 531 -44 96 -65 180
-73 296 l-7 96 -125 3 c-113 2 -129 0 -169 -20z m55 -1389 c85 -61 154 -115
154 -120 0 -8 -283 -217 -307 -226 -11 -4 -13 37 -13 226 0 127 3 231 6 231 3
0 75 -50 160 -111z m1132 29 l-3 -43 -230 0 -230 0 -3 43 -3 42 236 0 236 0
-3 -42z m0 -205 l3 -43 -335 0 -336 0 0 45 0 45 333 -2 332 -3 3 -42z m0 -205
l-3 -43 -280 0 -280 0 -3 43 -3 42 286 0 286 0 -3 -42z"/>
<path d="M3223 3758 c-6 -57 -8 -105 -4 -108 3 -3 93 -4 199 -2 l193 3 -3 102
-3 102 -186 3 -185 2 -11 -102z"/>
<path d="M4937 3853 c-4 -3 -7 -51 -7 -105 l0 -98 423 -2 422 -3 5 -610 5
-610 32 -55 c56 -98 78 -189 78 -325 0 -139 -21 -223 -85 -340 l-38 -71 5
-377 6 -377 -1206 0 -1207 0 0 -104 c0 -57 3 -124 6 -150 l7 -46 266 0 c259 0
267 1 301 23 l35 22 -300 5 c-165 3 273 6 974 8 701 1 1276 4 1279 6 2 3 4
700 3 1551 l0 1546 -23 40 c-14 25 -36 46 -63 59 -39 19 -62 20 -476 20 -240
0 -439 -3 -442 -7z"/>
<path d="M4138 2715 c-91 -29 -143 -115 -119 -194 14 -49 71 -100 140 -125 96
-34 129 -85 79 -120 -28 -20 -112 -21 -166 -2 l-41 15 -11 -37 c-5 -20 -10
-44 -10 -54 0 -38 154 -60 242 -34 68 19 112 58 128 113 28 91 -13 157 -130
210 -85 39 -110 58 -110 84 0 33 44 52 108 46 31 -3 65 -8 74 -12 13 -5 19 3
30 42 l14 48 -29 13 c-46 20 -146 24 -199 7z"/>
<path d="M2905 2707 c-3 -7 -4 -131 -3 -277 l3 -265 173 -3 172 -2 0 55 0 55
-110 0 -110 0 0 225 0 225 -60 0 c-40 0 -62 -4 -65 -13z"/>
<path d="M3350 2703 c0 -10 -7 -112 -15 -228 -8 -115 -15 -234 -15 -262 l0
-53 54 0 54 0 6 38 c3 20 8 114 12 207 5 114 10 160 15 140 58 -220 91 -343
95 -358 5 -15 15 -17 57 -15 l51 3 28 90 c16 50 44 141 62 203 l33 113 6 -98
c4 -54 7 -138 7 -188 0 -134 1 -135 71 -135 55 0 59 2 59 23 0 12 -7 130 -15
262 -8 132 -15 248 -15 258 0 15 -11 17 -81 17 l-80 0 -14 -34 c-8 -18 -34
-102 -58 -186 -25 -84 -47 -148 -49 -144 -3 5 -11 34 -18 64 -10 44 -47 182
-76 283 -5 14 -18 17 -90 17 -73 0 -84 -2 -84 -17z"/>
<path d="M3812 1905 c-71 -16 -135 -49 -193 -102 -52 -47 -108 -162 -116 -236
l-6 -57 204 0 204 0 -3 205 c-2 153 -6 205 -15 204 -7 0 -41 -7 -75 -14z"/>
<path d="M4895 1881 c-69 -42 -94 -98 -95 -214 0 -75 1 -79 32 -107 42 -39
159 -96 233 -115 32 -8 100 -15 150 -15 50 0 118 7 150 15 76 19 190 76 233
116 31 29 32 33 32 110 0 152 -62 229 -184 229 l-55 0 -58 -177 -58 -178 -7
50 c-10 77 -9 163 2 170 16 10 12 22 -15 39 -25 17 -32 15 -75 -13 -12 -8 -12
-12 2 -28 15 -16 16 -31 7 -128 -5 -61 -11 -114 -13 -120 -5 -14 -7 -6 -67
203 l-52 182 -66 0 c-47 0 -75 -5 -96 -19z"/>
</g>
</svg>
